# xmcd
#
# Track frame offsets:
#	150
#	34775
#	46940
#	74731
#	90478
#	116135
#	144827
#	169122
#	198196
#	217241
#
# Disc length: 3336 seconds
#
# Revision: 1
# Processed by: cddbd v1.5.1PL0 Copyright (c) Steve Scherf et al.
# Submitted via: MusicManager 7.0.3.0 
#
DISCID=910d060a
DTITLE=Cannonball Adderly-Jack McDuff-Art Pepper-Houston Person-Buster Williams... and more - Jazz for Reading  Vol. 2
DYEAR=2004
DGENRE=Jazz
TTITLE0=Blue Velvet - Willis Jackson and Pat Martino
TTITLE1=These Foolish Things - Art Pepper
TTITLE2=Some Other Time - Ralph Moore Quartet
TTITLE3=My Funny Valentine - Buster Williams
TTITLE4=Body and Soul - Al Cohn and Zoot Sims
TTITLE5=Willow Weep For Me - Cannonball Aderly
TTITLE6=My Romance - Houston Person
TTITLE7=Stars Fell On Alabama
TTITLE8=My Foolish Heart - Sadao Wantanabe
TTITLE9=I Can't Get Started - Jack McDuff
EXTD=YEAR: 2004
EXTT0=
EXTT1=
EXTT2=
EXTT3=
EXTT4=
EXTT5=
EXTT6=
EXTT7=
EXTT8=
EXTT9=
PLAYORDER=
